<?xml version="1.0" encoding="utf-8"?>
<svg xmlns="http://www.w3.org/2000/svg" viewBox="0 0 128 128" fill="#000000"><path d="M 14 1 C 6.8 1 1 6.8 1 14 L 1 28 L 1 114 C 1 121.2 6.8 127 14 127 L 114 127 C 121.2 127 127 121.2 127 114 L 127 14 C 127 6.8 121.2 1 114 1 L 14 1 z M 14 7 L 114 7 C 117.9 7 121 10.1 121 14 L 121 29 L 7 29 L 7 14 C 7 10.1 10.1 7 14 7 z M 18 15 C 16.3 15 15 16.3 15 18 C 15 19.7 16.3 21 18 21 L 22 21 C 23.7 21 25 19.7 25 18 C 25 16.3 23.7 15 22 15 L 18 15 z M 34 15 C 32.3 15 31 16.3 31 18 C 31 19.7 32.3 21 34 21 L 38 21 C 39.7 21 41 19.7 41 18 C 41 16.3 39.7 15 38 15 L 34 15 z M 7 35 L 121 35 L 121 114 C 121 117.9 117.9 121 114 121 L 14 121 C 10.1 121 7 117.9 7 114 L 7 35 z M 49 55 C 43.5 55 39 59.5 39 65 C 39 70.5 43.5 75 49 75 C 54.5 75 59 70.5 59 65 C 59 59.5 54.5 55 49 55 z M 81.363281 55.9375 C 80.600781 55.975 79.850781 56.300391 79.300781 56.900391 L 44.300781 95.199219 C 43.200781 96.399219 43.3 98.300391 44.5 99.400391 C 45.1 99.900391 45.8 100.19922 46.5 100.19922 C 47.3 100.19922 48.099219 99.899219 48.699219 99.199219 L 83.699219 60.900391 C 84.799219 59.700391 84.7 57.799219 83.5 56.699219 C 82.9 56.149219 82.125781 55.9 81.363281 55.9375 z M 49 61 C 51.2 61 53 62.8 53 65 C 53 67.2 51.2 69 49 69 C 46.8 69 45 67.2 45 65 C 45 62.8 46.8 61 49 61 z M 79 81 C 73.5 81 69 85.5 69 91 C 69 96.5 73.5 101 79 101 C 84.5 101 89 96.5 89 91 C 89 85.5 84.5 81 79 81 z M 79 87 C 81.2 87 83 88.8 83 91 C 83 93.2 81.2 95 79 95 C 76.8 95 75 93.2 75 91 C 75 88.8 76.8 87 79 87 z" fill="#000000"/></svg>
